<svg width="16" height="16" viewBox="0 0 16 16" fill="none" xmlns="http://www.w3.org/2000/svg">
<g clip-path="url(#clip0_21_130)">
<path fill-rule="evenodd" clip-rule="evenodd" d="M8.00016 0.333344C6.10098 0.334329 4.26407 1.00698 2.81789 2.23103C1.37172 3.45507 0.410582 5.15068 0.106343 7.01468C-0.197896 8.87867 0.174597 10.7895 1.15723 12.4055C2.13986 14.0214 3.66854 15.2372 5.46993 15.8353C5.86735 15.9091 6.01704 15.6628 6.01704 15.4533C6.01704 15.2439 6.00909 14.6367 6.00644 13.9728C3.78091 14.4536 3.31064 13.0337 3.31064 13.0337C2.94766 12.1116 2.42307 11.8693 2.42307 11.8693C1.69712 11.3766 2.47739 11.3859 2.47739 11.3859C3.2815 11.4425 3.70408 12.2065 3.70408 12.2065C4.41678 13.4222 5.57591 13.0705 6.03161 12.8651C6.10315 12.35 6.31113 11.9997 6.54031 11.8008C4.76253 11.6006 2.89467 10.9183 2.89467 7.87029C2.88365 7.07982 3.17866 6.31538 3.71865 5.73513C3.63652 5.53492 3.3623 4.72617 3.79681 3.62763C3.79681 3.62763 4.46845 3.41425 5.99718 4.44297C7.30842 4.08643 8.69189 4.08643 10.0031 4.44297C11.5305 3.41425 12.2008 3.62763 12.2008 3.62763C12.6367 4.72353 12.3625 5.53228 12.2803 5.73513C12.822 6.31547 13.1177 7.08124 13.1056 7.87293C13.1056 10.9275 11.2338 11.6006 9.45337 11.7968C9.73951 12.0445 9.99519 12.5279 9.99519 13.2708C9.99519 14.335 9.98591 15.1912 9.98591 15.4533C9.98591 15.6654 10.1303 15.913 10.5357 15.8353C12.3373 15.2371 13.8661 14.0211 14.8487 12.4049C15.8313 10.7887 16.2036 8.87754 15.899 7.01338C15.5945 5.14921 14.6329 3.45358 13.1862 2.22975C11.7395 1.00591 9.90221 0.333704 8.0028 0.333344H8.00016Z" fill="white"/>
<path d="M3.0296 11.7547C3.01238 11.7942 2.9488 11.806 2.89713 11.7784C2.84547 11.7507 2.80705 11.6993 2.8256 11.6585C2.84415 11.6177 2.90641 11.6071 2.95807 11.6348C3.00974 11.6625 3.04947 11.7152 3.0296 11.7547Z" fill="white"/>
<path d="M3.35417 12.1143C3.32674 12.128 3.29535 12.1318 3.26539 12.1251C3.23542 12.1184 3.20874 12.1015 3.18991 12.0774C3.13824 12.0221 3.12764 11.9457 3.16738 11.9114C3.20712 11.8772 3.27866 11.893 3.33033 11.9483C3.38199 12.0036 3.39391 12.08 3.35417 12.1143Z" fill="white"/>
<path d="M3.66952 12.5713C3.6205 12.6056 3.53704 12.5713 3.49067 12.5028C3.47785 12.4905 3.46766 12.4758 3.46069 12.4595C3.45373 12.4432 3.45013 12.4257 3.45013 12.408C3.45013 12.3903 3.45373 12.3728 3.46069 12.3565C3.46766 12.3402 3.47785 12.3254 3.49067 12.3132C3.53969 12.2802 3.62315 12.3132 3.66952 12.3803C3.71588 12.4475 3.71721 12.5371 3.66952 12.5713V12.5713Z" fill="white"/>
<path d="M4.09737 13.0139C4.05365 13.0626 3.9649 13.0495 3.89204 12.9836C3.81918 12.9177 3.80195 12.8282 3.84567 12.7808C3.88939 12.7333 3.97814 12.7465 4.05365 12.8111C4.12916 12.8756 4.14373 12.9665 4.09737 13.0139V13.0139Z" fill="white"/>
<path d="M4.69747 13.2721C4.6776 13.334 4.58752 13.3616 4.49744 13.3353C4.40735 13.309 4.34774 13.2352 4.36496 13.172C4.38218 13.1087 4.47359 13.0798 4.565 13.1087C4.6564 13.1377 4.71469 13.2075 4.69747 13.2721Z" fill="white"/>
<path d="M5.35189 13.3168C5.35189 13.3814 5.27771 13.4367 5.18233 13.438C5.08695 13.4393 5.00879 13.3866 5.00879 13.3221C5.00879 13.2576 5.08297 13.2022 5.17835 13.2009C5.27373 13.1996 5.35189 13.251 5.35189 13.3168Z" fill="white"/>
<path d="M5.96124 13.2154C5.97317 13.28 5.90693 13.3471 5.81155 13.3629C5.71617 13.3787 5.63271 13.3405 5.62079 13.2773C5.60887 13.2141 5.67775 13.1456 5.77048 13.1285C5.86321 13.1114 5.94932 13.1509 5.96124 13.2154Z" fill="white"/>
</g>
<defs>
<clipPath id="clip0_21_130">
<rect width="16" height="16" fill="white"/>
</clipPath>
</defs>
</svg>
